<?xml version="1.0" standalone="no"?>
<!DOCTYPE svg PUBLIC "-//W3C//DTD SVG 20010904//EN"
 "http://www.w3.org/TR/2001/REC-SVG-20010904/DTD/svg10.dtd">
<svg version="1.0" xmlns="http://www.w3.org/2000/svg"
 width="406.000000pt" height="406.000000pt" viewBox="0 0 406.000000 406.000000"
 preserveAspectRatio="xMidYMid meet">
<metadata>
Created by potrace 1.11, written by Peter Selinger 2001-2013
</metadata>
<g transform="translate(0.000000,406.000000) scale(0.100000,-0.100000)"
fill="#000000" stroke="none">
<path d="M147 3995 c-29 -7 -46 -19 -59 -41 -17 -28 -18 -129 -18 -1911 -1
-2073 -6 -1926 60 -1953 47 -20 3770 -19 3806 1 52 27 54 42 54 391 0 277 -2
327 -16 346 -36 51 -9 50 -889 49 -900 0 -892 0 -1075 61 -301 102 -551 329
-690 624 -44 95 -87 246 -92 323 l-3 49 617 1 618 0 26 26 c30 31 41 92 22
129 -29 56 -21 55 -681 55 -450 0 -607 3 -607 11 0 7 7 49 16 95 42 220 145
424 299 587 123 131 293 240 470 302 148 51 248 61 628 62 363 2 383 4 406 54
23 51 8 112 -34 140 -23 15 -60 17 -338 16 -388 -1 -474 -7 -622 -43 -374 -91
-716 -371 -898 -734 -41 -83 -99 -243 -112 -311 -89 -470 42 -911 370 -1240
190 -192 388 -309 630 -372 78 -20 102 -24 230 -38 33 -3 387 -6 788 -6 l727
0 0 -189 0 -189 -57 0 c-74 -1 -3332 -1 -3395 0 l-48 0 0 1750 0 1750 123 0
c162 0 3234 0 3314 0 l62 0 3 -266 3 -266 29 -25 c26 -22 37 -25 80 -20 38 3
55 11 73 31 l23 27 0 326 c0 352 -2 365 -56 394 -30 15 -3723 20 -3787 4z"/>
<path d="M2702 2130 c-38 -23 -52 -48 -52 -92 0 -116 172 -141 204 -29 26 92
-71 170 -152 121z"/>
</g>
</svg>
