<?xml version="1.0" standalone="no"?>
<!DOCTYPE svg PUBLIC "-//W3C//DTD SVG 20010904//EN"
 "http://www.w3.org/TR/2001/REC-SVG-20010904/DTD/svg10.dtd">
<svg version="1.0" xmlns="http://www.w3.org/2000/svg"
 width="500.000000pt" height="500.000000pt" viewBox="0 0 500.000000 500.000000"
 preserveAspectRatio="xMidYMid meet">
<metadata>
Created by potrace 1.11, written by Peter Selinger 2001-2013
</metadata>
<g transform="translate(0.000000,500.000000) scale(0.100000,-0.100000)"
fill="#000000" stroke="none">
<path d="M650 4462 c-14 -2 -38 -8 -53 -14 -61 -24 -57 108 -58 -1946 -1
-1720 1 -1882 16 -1911 9 -18 28 -37 43 -42 31 -12 3735 -17 3789 -5 21 5 39
19 53 40 19 32 20 49 20 357 0 278 -2 328 -16 347 -36 51 -10 50 -879 50 -445
0 -830 2 -855 6 -78 10 -102 16 -205 47 -172 53 -333 149 -459 273 -70 68
-156 168 -156 179 0 3 -14 26 -31 51 -74 111 -168 378 -165 471 l1 30 617 0
618 0 25 26 c48 48 42 131 -12 166 -25 17 -67 18 -637 18 l-611 1 2 45 c4 74
51 238 97 334 118 250 291 428 541 557 62 32 216 87 264 94 20 3 43 7 51 9 47
12 190 18 470 17 341 0 366 3 389 54 23 51 8 112 -33 139 -22 14 -66 16 -348
16 -178 0 -345 -3 -373 -5 -160 -17 -162 -17 -271 -45 -207 -53 -427 -184
-599 -356 -206 -207 -329 -438 -390 -737 -30 -144 -23 -360 17 -533 86 -375
349 -717 698 -908 104 -57 275 -118 368 -132 21 -3 47 -7 59 -9 73 -14 276
-18 906 -18 l707 0 0 -189 0 -189 -50 0 c-27 -1 -763 -1 -1635 -1 -872 0
-1637 0 -1700 1 l-115 0 0 1750 0 1750 53 0 c67 0 3232 0 3355 0 l92 0 0 -252
c0 -234 2 -255 20 -285 11 -18 31 -35 45 -39 43 -11 98 3 123 31 22 26 22 28
22 351 0 227 -3 332 -12 347 -17 32 -33 45 -63 53 -26 7 -3681 12 -3735 6z"/>
<path d="M3184 2595 c-41 -17 -64 -51 -64 -95 0 -44 23 -78 65 -96 60 -25 123
7 139 69 22 85 -60 157 -140 122z"/>
</g>
</svg>
